#
# Track frame offsets:
#	150
#	17797
#	48525
#	64011
#	76954
#	93780
#	110308
#	131667
#	149731
#	164192
#	177348
#	189370
#	208351
#
# Disc length: 2979 seconds
#
# Submitted via: cddb-tool 0.4.7
#
#blues,classical,country,data,folk,jazz,newage,reggae,rock,soundtrack,misc
#CATEGORY=misc
DISCID=bf0ba10d
DTITLE=Various Artists / 70s Collection
DYEAR=
DGENRE=
TTITLE0=Van Morrison / Moondance
TTITLE1=Don McLean / American Pie
TTITLE2=James Taylor / Carolina on my Mind
TTITLE3=James W. Buffet / Come Monday
TTITLE4=John Lennon and Paul McCartney / Blackbird - Yesterday
TTITLE5=Traditional / House of the Rising Sun
TTITLE6=Oscar Hammerstein and Richard Rogers / My Favorite Things
TTITLE7=H. Chapin and S. Chapin / Cat's in the Cradle
TTITLE8=James Taylor / Fire and Rain
TTITLE9=Bob Dylan / Don't Think Twice, It's All Right
TTITLE10=Paul Simon / Homeward Bound
TTITLE11=Steve Goodman / City of New Orleans
TTITLE12=Stephen Bishop / On and On
EXTD=
EXTT0=
EXTT1=
EXTT2=
EXTT3=
EXTT4=
EXTT5=
EXTT6=
EXTT7=
EXTT8=
EXTT9=
EXTT10=
EXTT11=
EXTT12=
PLAYORDER=
